<?xml version="1.0" encoding="utf-8"?>
<!-- Generator: Adobe Illustrator 22.0.1, SVG Export Plug-In . SVG Version: 6.00 Build 0)  -->
<svg version="1.1" id="Layer_1" xmlns="http://www.w3.org/2000/svg" xmlns:xlink="http://www.w3.org/1999/xlink" x="0px" y="0px"
	 viewBox="0 0 191 72.3" style="enable-background:new 0 0 191 72.3;" xml:space="preserve">
<style type="text/css">
	.st0{fill:#000;}
	.st1{fill:#FFFFFF;}
	.st2{fill:#000;}
</style>
<g>
	<path class="st0" d="M8.2,72H6L2.6,61.1l0,0V72H0V59.3h4.5l2.7,9.3l0,0l2.9-9.3h4.3V72h-2.6V61.1l0,0L8.2,72z"/>
	<path class="st0" d="M18.6,72l4.6-12.7h3.2L30.9,72h-2.8l-0.9-2.7h-5.1l-1,2.7H18.6z M26.5,67.2l-1.7-5.4l0,0l-1.9,5.4H26.5z"/>
	<path class="st0" d="M41.9,62.9c-0.1-1.3-0.8-1.9-2.1-1.9c-1,0-2,0.5-2,1.6c0,1.4,1.2,1.5,2.3,1.8c1.9,0.5,4.8,1,4.8,3.6
		c0,3.2-2.8,4.3-5.5,4.3c-2.9,0-5-1.1-4.9-4.3h2.8c-0.1,1.4,0.7,2.4,2.1,2.4c1.1,0,2.5-0.3,2.5-1.7c0-1.5-1.8-1.6-2.9-1.9
		c-1.8-0.4-4.2-1.3-4.2-3.5c0-2.9,2.7-4.2,5.3-4.2c2.5,0,4.4,1.3,4.4,3.9h-2.6V62.9z"/>
	<path class="st0" d="M56.4,62.9c-0.1-1.3-0.8-1.9-2.1-1.9c-1,0-2,0.5-2,1.6c0,1.4,1.2,1.5,2.3,1.8c1.9,0.5,4.8,1,4.8,3.6
		c0,3.2-2.8,4.3-5.5,4.3c-2.9,0-5-1.1-4.9-4.3h2.8c-0.1,1.4,0.7,2.4,2.1,2.4c1.1,0,2.5-0.3,2.5-1.7c0-1.5-1.8-1.6-2.9-1.9
		c-1.8-0.4-4.2-1.3-4.2-3.5c0-2.9,2.7-4.2,5.3-4.2c2.5,0,4.4,1.3,4.4,3.9h-2.6V62.9z"/>
	<path class="st0" d="M63.1,72l4.6-12.7H71L75.4,72h-2.8l-0.9-2.7h-5l-1,2.7H63.1z M71,67.2l-1.7-5.4l0,0l-1.9,5.4H71z"/>
	<path class="st0" d="M86.7,63.4c0-1.3-0.8-2.4-2.4-2.4c-1.9,0-2.4,2.9-2.4,4.7c0,1.8,0.5,4.7,2.4,4.7c1.6,0,2.5-1.1,2.4-2.4h2.9
		c-0.1,3.2-2.4,4.4-5.4,4.4c-3.7,0-5.3-2.9-5.3-6.6c0-3.7,1.7-6.6,5.3-6.6c2.9,0,5.2,1.2,5.4,4.4h-2.9V63.4z"/>
	<path class="st0" d="M94.1,72V59.3h2.7v5h4.8v-5h2.8V72h-2.7v-5.6h-4.9V72H94.1z"/>
	<path class="st0" d="M120.8,59.3v8c0,3.4-2.4,5-5.5,5s-5.5-1.6-5.5-5v-8h2.7v6.9c0,2.2,0.1,4.1,2.8,4.1c2.7,0,2.8-2,2.8-4.1v-6.9
		C118.1,59.3,120.8,59.3,120.8,59.3z"/>
	<path class="st0" d="M132.9,62.9c-0.1-1.3-0.8-1.9-2.1-1.9c-1,0-2,0.5-2,1.6c0,1.4,1.2,1.5,2.3,1.8c1.9,0.5,4.8,1,4.8,3.6
		c0,3.2-2.8,4.3-5.5,4.3c-2.9,0-5-1.1-4.9-4.3h2.8c-0.1,1.4,0.7,2.4,2.1,2.4c1.1,0,2.5-0.3,2.5-1.7c0-1.5-1.8-1.6-2.9-1.9
		c-1.8-0.4-4.2-1.3-4.2-3.5c0-2.9,2.7-4.2,5.3-4.2c2.5,0,4.4,1.3,4.4,3.9h-2.6V62.9z"/>
	<path class="st0" d="M140.4,59.3h8.5v2.1h-5.8v3h5.4v2.1h-5.4v3.4h6V72h-8.7V59.3z"/>
	<path class="st0" d="M153.1,59.3h10.3v2.1h-3.8V72h-2.7V61.4h-3.8V59.3z"/>
	<path class="st0" d="M166.7,59.3H177v2.1h-3.8V72h-2.7V61.4h-3.8V59.3z"/>
	<path class="st0" d="M188,62.9c-0.1-1.3-0.8-1.9-2.1-1.9c-1,0-2,0.5-2,1.6c0,1.4,1.2,1.5,2.3,1.8c1.9,0.5,4.8,1,4.8,3.6
		c0,3.2-2.8,4.3-5.5,4.3c-2.9,0-5-1.1-4.9-4.3h2.8c-0.1,1.4,0.7,2.4,2.1,2.4c1.1,0,2.5-0.3,2.5-1.7c0-1.5-1.8-1.6-2.9-1.9
		c-1.8-0.4-4.2-1.3-4.2-3.5c0-2.9,2.7-4.2,5.3-4.2c2.5,0,4.4,1.3,4.4,3.9H188V62.9z"/>
</g>
<g>
	<path class="st1" d="M115.7,41.8c7.4-4.1,11.8-11,14.1-18.1c2.4-7.4,2.6-16.1-0.2-21.5c-4.2,2.1-9,2.7-13.9,2.8
		c-4.9,0-9.7-0.6-13.9-2.8c-2.8,5.4-2.6,14.2-0.2,21.5C103.9,30.8,108.4,37.7,115.7,41.8L115.7,41.8z"/>
	<g>
		<polygon class="st1" points="79.7,41.9 79.7,30.2 91.4,30.2 91.4,13.2 79.7,13.2 79.7,1.5 62.7,1.5 62.7,13.2 51,13.2 51,30.2
			62.7,30.2 62.7,41.9 		"/>
	</g>
	<path class="st2" d="M82.6,41.2c0-1.2,1-2.1,2.2-2.1S87,40,87,41.2c0,1.2-1,2.1-2.2,2.1S82.6,42.4,82.6,41.2z M84.7,42.9
		c1,0,1.7-0.8,1.7-1.8s-0.8-1.8-1.7-1.8c-1,0-1.7,0.8-1.7,1.8C83,42.2,83.8,42.9,84.7,42.9z M84.3,42.4h-0.4v-2.5h0.9
		c0.6,0,0.9,0.2,0.9,0.7c0,0.4-0.3,0.6-0.6,0.7l0.7,1.1h-0.4l-0.6-1.1h-0.4L84.3,42.4L84.3,42.4z M84.7,41c0.3,0,0.6,0,0.6-0.4
		c0-0.3-0.3-0.4-0.5-0.4h-0.5V41H84.7z"/>
	<path class="st2" d="M123.1,41.2c0-1.2,1-2.1,2.2-2.1s2.2,0.9,2.2,2.1c0,1.2-1,2.1-2.2,2.1S123.1,42.4,123.1,41.2z M125.2,42.9
		c1,0,1.7-0.8,1.7-1.8s-0.8-1.8-1.7-1.8c-1,0-1.7,0.8-1.7,1.8C123.5,42.2,124.3,42.9,125.2,42.9z M124.8,42.4h-0.4v-2.5h0.9
		c0.6,0,0.9,0.2,0.9,0.7c0,0.4-0.3,0.6-0.6,0.7l0.7,1.1h-0.4l-0.7-1.1h-0.4V42.4z M125.2,41c0.3,0,0.6,0,0.6-0.4
		c0-0.3-0.3-0.4-0.5-0.4h-0.5V41H125.2z"/>
	<g>
		<polygon class="st2" points="80.6,43.1 80.6,31.3 92.5,31.3 92.5,12.3 80.6,12.3 80.6,0.5 61.8,0.5 61.8,12.3 49.9,12.3
			49.9,31.3 61.8,31.3 61.8,43.1 		"/>
	</g>
	<path class="st1" d="M71.2,21.8"/>
	<path class="st1" d="M71.2,21.8"/>
	<path class="st1" d="M71.2,21.8"/>
	<path class="st1" d="M71.2,21.8"/>
	<path class="st2" d="M115.9,43.6C124,39,129,31.8,131.6,23.9c2.7-8.2,2.2-17.9-0.9-23.9c-4.7,2.4-9.4,3.5-14.8,3.5
		c-5.5,0-10.2-1.2-14.8-3.5c-3.1,6-3.5,15.7-0.9,23.9C102.7,31.8,107.7,39,115.9,43.6L115.9,43.6z"/>
	<g>
		<g>
			<path class="st1" d="M115.9,39.9L115.9,39.9L115.9,39.9L115.9,39.9z M128.8,4.5c-3.4,1.2-5.3,1.5-7.2,1.8
				c-1.7,0.3-3.2,0.4-5.7,0.5l0,0c-2.5,0-4-0.2-5.7-0.5c-1.8-0.3-3.8-0.6-7.2-1.8c-2.2,5.5-1.7,12.5,0.3,18.5
				c2.3,6.7,5.9,12.7,12.6,16.9c6.7-4.2,10.3-10.1,12.6-16.9C130.5,17,131,10,128.8,4.5z M127.6,20.3c-2.1,8.5-7.2,15-11.8,17.9l0,0
				l0,0l0,0c-4.6-2.9-9.7-9.4-11.8-17.9c-1.1-4.5-1.4-9.6,0-13.7c2,0.5,3.9,1,5.9,1.3s3.9,0.5,5.8,0.5l0,0c1.9,0,3.9-0.2,5.8-0.5
				c2-0.3,3.9-0.7,5.9-1.3C129,10.7,128.7,15.8,127.6,20.3z"/>
		</g>
	</g>
	<path class="st1" d="M117.2,22.9v-3.7c0,0-0.5-0.1-1.1-0.1c-0.9-0.1-1.3,0-1.3,0v0.3c0,0-0.4,0.2-0.5,0.3c0,0.1-0.1,0.2-0.1,0.3
		c0.3,0.9,0.8,1.8,1,2.8C115.8,22.8,116.4,22.8,117.2,22.9z"/>
	<path class="st1" d="M112.7,22.3c-0.2,1.5,0.8,2.3,1.9,2.5c0.8,0.2,1.7,0.2,2.5,0.3c0.1,0,0.3,0,0.5,0.1s0.2,0.2,0.3,0.3
		c0,0.1,0,0.2-0.1,0.4c-0.1,0.1-0.3,0.2-0.3,0.2v1.8c0,0,0.7,0,1.3-0.4c0.5-0.3,0.9-0.8,1-1.3c0.1-0.6,0-1.2-0.4-1.8
		c-0.3-0.4-0.8-0.7-1.3-0.9c-1-0.4-2.2-0.3-3.3-0.5c-0.2,0-0.3-0.2-0.3-0.3c0-0.3,0.2-0.4,0.2-0.4s-0.1-0.4-0.3-0.8
		c-0.1-0.3-0.3-0.7-0.4-1C113.2,20.9,112.8,21.5,112.7,22.3z"/>
	<path class="st1" d="M117.1,25.6v3.2l-0.8-0.4l-0.8-0.3v-2.7C116.2,25.5,116.5,25.5,117.1,25.6z"/>
	<path class="st1" d="M113.5,27.3c-0.4,1,0.1,2,1,2.5c0.5,0.2,1,0.4,1.5,0.6s1.3,0.7,1.4,1c0,0.2-0.1,0.3-0.1,0.3v1.2
		c0,0,0.5-0.1,0.9-0.4c0.4-0.3,0.6-0.7,0.6-1.3c0-0.7-0.3-1.2-1.3-1.8c-0.8-0.4-1.7-0.8-2.4-1.1c-0.1,0-0.2-0.2-0.2-0.4
		c0-0.1,0.1-0.2,0.1-0.2v-1.4c0,0-0.5,0.1-0.8,0.3C114,26.7,113.7,26.9,113.5,27.3z"/>
	<path class="st1" d="M117,31.5c0-0.1,0-0.1-0.1-0.2c-0.2-0.2-0.5-0.4-0.6-0.4c-0.2-0.1-0.7-0.3-0.7-0.3s0,3.2,0.1,4.9
		c0,0.4,0.2,0.5,0.6,0.5c0.5,0,0.6-0.3,0.6-0.4C116.9,35.1,116.9,32.8,117,31.5z"/>
	<path class="st1" d="M117.3,10.6c0.2,0.1,0.2,0.1,0.2,0.4c0.1,0.5,0,1.3,0.1,1.7c0.1,0.1,0.2,0.1,0.3,0.1c0.7-0.4,1.2-1.1,1.9-1.4
		c0.3-0.1,1.3,0.3,1.1,1c-0.1,0.3-0.3,0.4-0.5,0.6c-0.4,0.4-1,0.9-1.5,1.4c-0.4,0.4-0.8,0.7-1.1,1.1c-0.1,0.1-0.2,0.3-0.2,0.3
		c-1-0.2-2-0.2-2.8-0.3v-1.2c0,0,0.8-0.1,0.9-0.5c0,0,0-0.2-0.1-0.3s-0.4-0.2-0.4-0.2c0.8,0.1,1.3,0.3,2.1,0.6c0.1-0.1,0-0.3,0-0.3
		c-0.1-0.1-0.2-0.2-0.4-0.2c-0.5-0.1-1.8-0.3-1.8-0.3s0.6,0,1.1-0.1c0.2,0,0.4-0.1,0.5-0.2c0.1-0.1,0-0.3-0.2-0.5
		c-0.1-0.1-0.2-0.3-0.3-0.4c-0.1-0.2-0.3-0.5-0.5-0.6c-0.2-0.2-0.6-0.4-0.6-0.4s-0.1-0.6,0.1-0.9c0.1-0.2,0.3-0.3,0.5-0.2
		C115.9,10.2,116.5,10.5,117.3,10.6z"/>
	<g>
		<g>
			<path class="st1" d="M120.5,18.8c-0.1-0.8-0.8-1.6-1.4-1.9c-1.8-0.9-3.8-0.5-5.6-1.1c-0.6-0.2-1.5-0.5-1.7-1.2
				c-0.1-0.3,0-0.8,0.3-0.9c0.5-0.1,1,0.2,1.7,0.4c0.4,0.1,0.8,0.1,1.2,0c0.2,0,0.4-0.1,0.4-0.2c0-0.1-0.2-0.1-0.3-0.2
				c-0.2-0.1-0.4-0.2-0.6-0.2c-0.4-0.1-0.7-0.3-1.1-0.5c0.4-0.1,0.9-0.1,1.3-0.1c0.3,0,1.2,0,1.4,0c0.1,0,0.2-0.1,0.1-0.2
				c-0.1-0.2-0.3-0.2-0.4-0.4c-0.3-0.3-0.5-0.7-0.9-0.9c-1.2-0.5-2.5-0.6-3.7,0c-1.5,0.8-2.1,2.7-1.4,4.2c0.6,1.3,1.8,2.2,3.2,2.6
				c0.7,0.2,1.4,0.3,2.1,0.3c0.9,0,1.7,0.1,2.5,0.3c0.2,0,0.4,0.1,0.5,0.3c0.2,0.4,0,0.9-0.4,1c0,0.7-0.1,2.2-0.1,2.2
				S121.1,22,120.5,18.8z M114.9,11.8L114.9,11.8c-0.3,0.1-0.4,0.2-0.5,0.2c-0.3,0.1-0.3-0.2-0.5-0.4c-0.1-0.1-0.3,0-0.4-0.2
				C113.9,11.5,114.5,11.5,114.9,11.8z"/>
		</g>
	</g>
	<g>
		<g>
			<path class="st1" d="M77.7,31.6L77.7,31.6L77.7,31.6L77.7,31.6z M70.7,15.6c0-0.7-0.1-0.9-0.6-1.6c-0.6-0.8-0.2-2.3,1.2-2.4
				c1.4,0,1.8,1.6,1.2,2.4c-0.6,0.7-0.7,0.9-0.6,1.6c0,0.6,0.5,1.3,1.7,1.3h8.3c-1.9-4-5.9-6.8-10.6-6.8s-8.7,2.8-10.6,6.8H69
				C70.1,16.8,70.7,16.1,70.7,15.6z M73.6,15c0.6-0.6,1-1.9,0.4-2.9c1.9,0.6,3.6,1.7,4.9,3.1h-5.3C73.5,15.2,73.5,15.1,73.6,15z
				 M68.8,15.3h-5.3c1.3-1.5,2.9-2.6,4.9-3.1c-0.6,1-0.1,2.3,0.5,2.9C69,15.1,68.9,15.2,68.8,15.3z M64.8,31.6L64.8,31.6L64.8,31.6
				L64.8,31.6z M60.3,17.7L60.3,17.7L60.3,17.7L60.3,17.7z M69.4,20.9c0.4-0.9,0.2-2.3-1.3-2.5l-7.9-0.8c-0.5,1.3-0.7,2.7-0.7,4.1
				c0,3.7,1.8,7.1,4.5,9.2l0,0L69.4,20.9z M63.6,28.4c-1.5-1.8-2.4-4.1-2.4-6.6c0-0.8,0.1-1.6,0.3-2.4l5.9,0.5
				c0.4,0,0.5,0.2,0.4,0.5L63.6,28.4z M82.2,17.7L82.2,17.7L82.2,17.7L82.2,17.7z M70.5,23.1l-5.7,8.5c1.8,1.2,4.1,1.9,6.4,1.9
				c2.4,0,4.6-0.7,6.4-1.9L72,23.1C71.6,22.5,70.9,22.5,70.5,23.1z M71.2,31.9c-1.5,0-2.8-0.3-4.1-0.9l3.9-6c0-0.1,0.1-0.1,0.2-0.1
				s0.1,0,0.2,0.1l3.9,6C74.1,31.6,72.7,31.9,71.2,31.9z M82.9,21.8c0-1.5-0.3-2.8-0.7-4.1l-7.9,0.8c-1.5,0.2-1.6,1.6-1.3,2.5
				l5.4,10l0,0C81.2,28.9,82.9,25.5,82.9,21.8z M74.7,20.4c-0.1-0.2-0.1-0.4,0.4-0.5l5.9-0.5c0.2,0.8,0.3,1.6,0.3,2.4
				c0,2.5-0.9,4.8-2.4,6.6L74.7,20.4z"/>
		</g>
	</g>
	<g>
		<path class="st1" d="M114.8,32.7c-0.2,0.2-0.5,0.6-0.6,1.3c-0.1,0.6,0.1,0.8,0.2,1.1s0.4,0.2,0.5,0s0-0.4,0-0.8
			c0-0.3,0.3-0.5,0.3-0.5v-1.4C115.3,32.3,115,32.5,114.8,32.7z"/>
	</g>
</g>
</svg>
