<?xml version="1.0" encoding="UTF-8" standalone="no"?>
<svg
   xmlns:dc="http://purl.org/dc/elements/1.1/"
   xmlns:cc="http://creativecommons.org/ns#"
   xmlns:rdf="http://www.w3.org/1999/02/22-rdf-syntax-ns#"
   xmlns:svg="http://www.w3.org/2000/svg"
   xmlns="http://www.w3.org/2000/svg"
   xmlns:sodipodi="http://sodipodi.sourceforge.net/DTD/sodipodi-0.dtd"
   xmlns:inkscape="http://www.inkscape.org/namespaces/inkscape"
   version="1.1"
   width="1000"
   height="1000"
   id="svg17468"
   inkscape:version="0.91 r13725"
   sodipodi:docname="Bayer.svg">
  <metadata
     id="metadata3011">
    <rdf:RDF>
      <cc:Work
         rdf:about="">
        <dc:format>image/svg+xml</dc:format>
        <dc:type
           rdf:resource="http://purl.org/dc/dcmitype/StillImage" />
        <dc:title></dc:title>
      </cc:Work>
    </rdf:RDF>
  </metadata>
  <sodipodi:namedview
     pagecolor="#ffffff"
     bordercolor="#666666"
     borderopacity="1"
     objecttolerance="10"
     gridtolerance="10"
     guidetolerance="10"
     inkscape:pageopacity="0"
     inkscape:pageshadow="2"
     inkscape:window-width="1366"
     inkscape:window-height="705"
     id="namedview3009"
     showgrid="false"
     inkscape:zoom="0.35355339"
     inkscape:cx="432.73707"
     inkscape:cy="539.51843"
     inkscape:window-x="-8"
     inkscape:window-y="-8"
     inkscape:window-maximized="1"
     inkscape:current-layer="svg17468" />
  <defs
     id="defs17470" />
  <path
     style="fill:#000000;fill-opacity:1;fill-rule:nonzero;stroke:none"
     d="M 499.99999,5.3286133e-5 C 223.81195,5.3286133e-5 0,223.81191 0,500.00002 0,776.15405 223.81195,999.9999 499.99999,999.9999 776.1542,999.9999 1000,776.15405 1000,500.00002 1000,223.81191 776.1542,5.3286133e-5 499.99999,5.3286133e-5 Z M 487.90924,33.854163 c 4.01189,-0.10138 8.05433,0 12.09075,0 258.29723,0 467.81995,208.526187 467.81995,466.145857 0,257.61957 -209.52272,466.70372 -467.81995,466.70372 -258.33131,0 -467.633914,-209.08415 -467.633914,-466.70372 0,-253.59441 202.792244,-459.766717 455.543164,-466.145857 z m -69.56848,28.08783 0,160.342257 113.65326,0 c 0,0 52.26943,2.5859 52.26943,-50.78128 0,0 -0.52055,-24.097 -20.64734,-33.11007 0,0 17.29903,-7.91655 17.29903,-33.66823 0,0 -2.22757,-42.782677 -49.66517,-42.782677 l -112.90921,0 z m 33.85419,36.45833 76.07883,0 c 0,0 17.11311,-1.34588 17.11311,13.020777 0,14.90902 -17.11311,12.46282 -17.11311,12.46282 l -76.07883,0.37175 0,-25.855677 z m 0,60.825917 77.19493,0 c 0,0 17.85715,-1.92335 17.85715,13.76482 0,15.72209 -17.85715,13.76494 -17.85715,13.76494 l -77.19493,0 0,-27.52976 z m 24.55357,80.54312 -76.4509,158.11012 39.24852,0 12.27676,-25.48361 91.70388,0 11.90476,25.48361 41.1086,0 -77.5669,-158.11012 -42.22472,0 z m 21.39138,34.22619 29.76189,64.17414 -59.33779,0 29.5759,-64.17414 z m -430.617573,140.25298 0,158.482 114.025283,0 c 0,0 56.73363,2.13981 56.73363,-47.80496 0,0 2.86197,-24.50278 -17.2991,-33.4821 0,0 15.43898,-5.12608 15.43898,-30.87797 0,0 3.57631,-46.31697 -54.87351,-46.31697 l -114.025283,0 z m 253.534193,0 -80.54314,158.482 41.29468,0 11.16071,-23.80951 95.05204,0 11.16071,23.80951 42.59676,0 -81.28723,-158.482 -39.43453,0 z m 68.82444,0 93.56399,100.2604 0,58.2216 35.90028,0 0,-60.45375 82.03128,-98.02825 -44.82887,0 -56.91964,67.89435 -61.94201,-67.89435 -47.80503,0 z m 216.70388,0 0,158.10999 139.5089,0 0,-36.27226 -103.42265,0 0,-27.52972 103.42265,0 0,-32.73807 -103.42265,0 0,-27.3437 103.42265,0 0,-34.22624 -139.5089,0 z m 176.33929,0 0,158.482 36.08625,0 0,-58.2216 31.43613,0 44.64278,58.2216 43.3408,0 -45.20094,-58.59363 c 0,0 49.29322,-1.49752 49.29322,-50.59522 0.30361,-8.53893 -3.91633,-49.29315 -52.64141,-49.29315 l -106.95683,0 z m -678.94347,34.59827 80.91516,0 c 0,0 16.94381,-1.16083 17.1131,13.57881 0,14.87469 -17.1131,13.76489 -17.1131,13.76489 l -80.91516,0 0,-27.3437 z m 715.02972,0 70.87058,0 c 0,0 16.7708,-0.89275 16.74109,15.06691 0.0382,15.92551 -16.74109,15.99702 -16.74109,15.99702 l -70.87058,0 0,-31.06393 z m -478.98062,3.34819 30.50596,63.05798 -60.08186,0 29.5759,-63.05798 z m -236.0491,56.73358 80.91516,0 c 0,0 17.85715,-1.72363 17.85715,15.62498 0,14.73962 -17.85715,13.76484 -17.85715,13.76484 l -80.91516,0 0,-29.38982 z m 313.9881,81.28709 0,157.73812 155.87803,0 0,-34.22629 -119.41969,0 0,-26.5996 119.41969,0 0,-34.59829 -119.41969,0 0,-26.22764 119.41969,0 0,-36.0863 -155.87803,0 z m 0.37191,183.03569 0,158.11012 36.08633,0 0,-58.22171 40.36457,0 45.01488,58.22171 42.5967,0 -45.57289,-59.70977 c 0,0 44.45679,-4.24071 44.45679,-51.33928 0,-14.57027 -5.89137,-47.06107 -47.43298,-47.06107 l -115.5134,0 z m 36.08633,32.55207 73.47469,0 c 0,0 18.22912,-0.26873 18.22912,16.74115 0.0714,15.92609 -18.22912,16.36902 -18.22912,16.36902 l -73.47469,0 0,-33.11017 z"
     id="path8364"
     inkscape:connector-curvature="0" />
</svg>
